# xmcd
#
# Track frame offsets:
#	150
#	12562
#	29170
#	46272
#	67942
#	84530
#	104372
#	121197
#	136827
#	150982
#
# Disc length: 2231 seconds
#
# Revision: 0
# Processed by: cddbd v1.5.2PL0 Copyright (c) Steve Scherf et al.
# Submitted via: dBpowerAMP V4.0
#
DISCID=7908b50a
DTITLE=Dan et Lou - Suis ta Route
DYEAR=1900
DGENRE=Country
TTITLE0=Le Bonheur
TTITLE1=Fou d'elle
TTITLE2=Santa Maria de la Mer
TTITLE3=Au Bord du Lac Bijou
TTITLE4=Combien Faut-il de Temps
TTITLE5=Suis ta Route
TTITLE6=C'est une Valse
TTITLE7=Les Anges du Mexique
TTITLE8=Mélissa
TTITLE9=Blue Roses
EXTD=
EXTT0=
EXTT1=
EXTT2=
EXTT3=
EXTT4=
EXTT5=
EXTT6=
EXTT7=
EXTT8=
EXTT9=
PLAYORDER=
